<svg width="207" height="261" viewBox="0 0 207 261" fill="none" xmlns="http://www.w3.org/2000/svg">
<circle cx="120.173" cy="141.742" r="86.8272" fill="wheat" fill-opacity="0.39"/>
<path d="M171.266 145.503V127.385C171.266 122.879 169.744 118.504 166.947 114.971L159.653 105.758C159.455 105.508 159.297 105.23 159.182 104.932L155.365 95.0064C154.896 93.7868 153.086 94.1228 153.086 95.4296V95.4296C153.086 96.7805 151.183 97.0697 150.781 95.7798L148.874 89.6502C148.758 89.2778 148.544 88.9438 148.253 88.6839L138.024 79.5436C136.562 78.2369 134.254 79.3871 134.417 81.3414V81.3414C134.609 83.6481 131.539 84.6121 130.378 82.6094L120.728 65.9588C119.779 64.3203 118.161 63.178 116.3 62.8309L103.321 60.4111C101.64 60.0978 99.9044 60.3113 98.3501 61.0223L75.4884 71.4803C74.2995 72.0242 73.1481 70.6592 73.8846 69.5789V69.5789C74.574 68.5678 73.6009 67.2543 72.4328 67.6193L48.9614 74.9542C46.9973 75.568 45.3735 76.965 44.4733 78.8154L41.9249 84.0536C41.0736 85.8036 38.7976 86.2761 37.32 85.0096V85.0096C35.6405 83.57 33.0331 84.4052 32.5025 86.5527L27.751 105.785C27.3051 107.59 26.5314 109.297 25.4683 110.823L23.459 113.706C21.1206 117.061 19.867 121.052 19.867 125.141V148.011M171.266 145.503L174.626 140.128C175.512 138.71 176.671 137.484 178.037 136.52L179.529 135.467C180.679 134.655 182.053 134.219 183.461 134.219V134.219C186.458 134.219 189.105 136.177 189.981 139.044L190.903 142.064C191.586 144.299 191.545 146.693 190.786 148.904L181.297 176.535L179.949 183.004C179.803 183.705 179.729 184.419 179.729 185.135V185.135C179.729 188.046 178.515 190.825 176.38 192.802L174.903 194.169C172.66 196.246 169.464 196.936 166.564 195.969V195.969M171.266 145.503L179.729 111.336L182.962 89.0044C183.105 88.0165 183.095 87.0125 182.933 86.0275L180.487 71.1258C180.177 69.2395 182.166 67.8173 183.851 68.72V68.72C185.624 69.6703 187.679 68.0512 187.17 66.1044L183.89 53.5646C183.429 51.8014 182.377 50.2497 180.91 49.1685L159.355 33.2859L148.916 25.6307C147.135 24.3245 147.195 21.645 149.032 20.4198L150.215 19.6313C152.896 17.8438 151.12 13.6697 147.973 14.3621V14.3621C147.623 14.4391 147.262 14.4508 146.907 14.3967L127.921 11.496C126.933 11.3451 126.699 10.027 127.575 9.54531V9.54531C128.523 9.02395 128.153 7.58257 127.071 7.58257H111.083H90.3431C88.8549 7.58257 87.8277 6.09213 88.3575 4.70141V4.70141C88.961 3.1173 87.5575 1.49905 85.904 1.87243L65.5658 6.46493C62.378 7.18475 59.5664 9.05226 57.6669 11.7116L44.4337 30.2381C41.8695 33.828 37.4804 35.6382 33.1311 34.8996L31.8396 34.6803C27.0875 33.8733 22.44 36.5871 20.8073 41.1223V41.1223L18.7675 48.5399C17.8458 51.8917 16.0378 54.9331 13.5339 57.3443L11.5598 59.2453C9.83058 60.9105 8.68725 63.0909 8.30095 65.4602L4.59535 88.1879C4.44276 89.1238 5.47945 89.7915 6.26843 89.2655V89.2655C6.98964 88.7847 7.95566 89.3017 7.95566 90.1685V96.7325C7.95566 97.5375 8.80287 98.0611 9.52294 97.7011V97.7011C10.243 97.3411 11.0902 97.8647 11.0902 98.6697V103.921C11.0902 104.057 11.0672 104.193 11.0222 104.321L10.2254 106.598C9.9488 107.388 10.97 107.976 11.5149 107.341V107.341C11.947 106.837 12.7726 107.093 12.8427 107.754L14.8517 126.696L19.867 148.011M166.564 195.969L167.893 188.661C168.655 184.471 170.857 180.678 174.118 177.939V177.939C175.96 176.391 177.478 174.495 178.586 172.359L179.784 170.049C180.786 168.117 181.465 166.034 181.796 163.884L182.777 157.511C183.038 155.812 182.796 154.074 182.08 152.512L180.456 148.97C180.013 148.003 179.048 147.384 177.985 147.384V147.384C176.787 147.384 175.73 148.168 175.383 149.314L173.332 156.082C173.106 156.827 172.168 157.062 171.618 156.512V156.512C170.992 155.886 169.92 156.287 169.861 157.17C169.532 162.051 169.072 168.716 169.072 168.072C169.072 167.395 161.968 148.739 157.347 136.709C156.397 134.235 154.962 131.979 153.128 130.065L152.302 129.203M166.564 195.969L157.363 217.535C156.812 218.827 156.126 220.058 155.317 221.206L146.817 233.271M152.302 129.203L151.691 128.566C149.718 126.507 147.327 124.894 144.679 123.835L142.22 122.851C138.281 121.276 133.944 120.993 129.835 122.044L122.68 123.875L114.845 126.416C112.616 127.139 110.178 126.301 108.864 124.361V124.361C106.775 121.277 108.463 117.057 112.104 116.266L118.919 114.784C122.68 113.531 130.329 111.086 130.83 111.336C131.118 111.48 135.07 112.94 139.472 114.552C145.287 116.683 149.801 121.373 151.685 127.273L152.302 129.203ZM117.979 139.547V140.174C117.979 142.72 119.251 145.098 121.369 146.51V146.51C122.234 147.086 123.208 147.48 124.231 147.666L126.128 148.011M117.979 139.547L128.323 138.07M117.979 139.547L115.158 143.466M126.128 148.011L136.786 145.503V145.503C138.925 145.075 139.369 142.212 137.459 141.157L132.446 138.386C131.601 137.919 130.627 137.741 129.671 137.877L128.323 138.07M126.128 148.011V148.011C127.565 145.547 128.323 142.747 128.323 139.895V138.07M89.7676 184.999H92.2751C93.7727 184.999 95.1023 184.04 95.5759 182.619V182.619C95.6737 182.326 95.8102 182.047 95.9817 181.79L96.9143 180.391C98.9811 177.291 99.9037 173.567 99.5235 169.861L98.6955 161.788C98.0683 155.672 102.013 150.02 107.97 148.499V148.499C110.791 147.778 113.269 146.089 114.97 143.726L115.158 143.466M89.7676 184.999L88.3879 182.756C87.655 181.565 86.5624 180.638 85.268 180.109L82.5708 179.005C81.2818 178.478 79.7995 178.918 79.0067 180.063L78.0333 181.469C77.7518 181.876 77.8119 182.427 78.1743 182.764V182.764C78.9755 183.508 78.1638 184.812 77.1424 184.421L72.5289 182.657C71.773 182.368 71.2737 181.643 71.2737 180.834V177.612C71.2737 175.375 72.4009 173.289 74.2719 172.063L78.4899 169.3C79.719 168.494 80.723 167.39 81.4074 166.089V166.089C82.7186 163.598 82.737 160.625 81.4566 158.118L75.9756 147.384M89.7676 184.999L89.5998 191.709C89.5218 194.83 86.767 197.201 83.6696 196.814V196.814C82.541 196.673 81.3969 196.9 80.408 197.462L69.5787 203.615C68.648 204.144 67.9301 204.979 67.5479 205.979V205.979C66.1564 209.618 69.6219 213.238 73.318 212.006L77.0266 210.769C78.3777 210.319 79.8397 210.328 81.1855 210.793L83.4816 211.588C85.9236 212.433 88.5841 212.4 91.0037 211.492V211.492C93.4448 210.577 96.1305 210.551 98.589 211.418L110.208 215.519C110.578 215.65 110.971 215.7 111.362 215.668V215.668C113.859 215.46 115.329 218.408 113.66 220.278L111.345 222.871C110.767 223.519 110 223.969 109.153 224.159L92.2753 227.942M75.9756 147.384L74.1948 146.875C71.042 145.974 67.716 145.862 64.5098 146.549L62.688 146.94C61.3107 147.235 59.906 147.384 58.4974 147.384H55.4442M75.9756 147.384L70.6468 143.466M48.272 141.742V141.742C50.7071 139.185 54.2282 137.963 57.7236 138.463L61.0043 138.931C63.8362 139.336 66.5241 140.434 68.8287 142.129L70.6468 143.466M48.272 141.742V141.742C47.011 143.066 47.2139 145.199 48.7017 146.262L49.3169 146.701C49.9382 147.145 50.6826 147.384 51.4461 147.384H55.4442M48.272 141.742V141.742C49.7601 144.362 52.177 146.33 55.0453 147.255L55.4442 147.384M55.4442 147.384V147.384C57.7184 145.802 59.1341 143.258 59.2797 140.491L59.3624 138.921M70.6468 143.466V143.466C70.0483 140.972 68.4184 138.85 66.1634 137.628L64.9099 136.949C63.1206 135.98 61.1178 135.473 59.0828 135.473H55.6325C52.9277 135.473 50.2558 136.065 47.8048 137.209L45.8068 138.141C43.4172 139.257 41.4614 141.128 40.2416 143.466V143.466M115.158 143.466V143.466C115.551 140.076 117.546 137.081 120.521 135.41L121.673 134.763C123.768 133.586 126.143 132.997 128.544 133.09C131.947 133.222 135.666 133.412 135.846 133.592C136.044 133.79 140.844 136.755 144.7 139.121C145.134 139.388 144.839 140.057 144.349 139.917V139.917C143.942 139.801 143.624 140.274 143.885 140.608L148.697 146.757M19.867 148.011L13.8728 141.235C13.0732 140.331 12.0773 139.622 10.9614 139.163L9.81907 138.692C8.25035 138.046 6.46968 138.172 5.0074 139.032V139.032C3.17582 140.11 2.14281 142.158 2.36526 144.271L4.90663 168.414C5.05813 169.854 5.36541 171.272 5.82307 172.645L11.4617 189.561C12.6303 193.067 15.1233 195.976 18.4083 197.669V197.669C21.7503 199.39 24.2702 202.371 25.4122 205.953L29.0074 217.228C30.0035 220.352 31.7524 223.184 34.1003 225.473L51.7319 242.664C54.2658 245.134 57.4099 246.888 60.8432 247.746L104.447 258.647C105.288 258.858 106.177 258.748 106.942 258.339V258.339C110.147 256.624 108.929 251.765 105.294 251.765H103.578C102.751 251.765 101.945 251.503 101.275 251.018L89.7676 242.674L87.1961 240.911C84.1593 238.829 85.2144 234.107 88.8489 233.515V233.515C90.8243 233.193 92.2753 231.487 92.2753 229.486V227.942M92.2753 227.942C87.9914 227.106 79.2982 225.372 78.7967 225.121M96.9771 180.924L103.585 180.098C104.156 180.026 104.725 180.246 105.1 180.683L105.314 180.933C105.878 181.591 105.731 182.595 105.002 183.064V183.064C103.917 183.761 104.24 185.427 105.507 185.668L108.074 186.157C108.405 186.22 108.744 186.216 109.07 186.137C111.045 185.657 114.217 184.666 114.217 183.745C114.217 183.328 114.289 182.607 114.389 181.818C114.644 179.794 114.424 177.732 113.633 175.852V175.852C112.788 173.847 111.357 172.144 109.526 170.967L107.948 169.953M50.2722 126.696H66.2313C67.2695 126.696 68.283 127.012 69.1366 127.603L71.8315 129.469C73.729 130.783 76.3447 129.631 76.6566 127.344V127.344C76.8154 126.179 76.3 125.025 75.3267 124.365L70.0011 120.758C68.1616 119.512 66.042 118.74 63.8318 118.513L51.8104 117.275C47.9433 116.877 44.044 117.615 40.5895 119.398L37.19 121.152C36.5112 121.503 35.8859 121.948 35.3328 122.475L32.0641 125.588C30.6894 126.897 30.6227 129.068 31.9145 130.459V130.459C32.9513 131.576 34.5953 131.885 35.9668 131.221L41.657 128.468C42.796 127.917 44.0148 127.549 45.2685 127.378L50.2722 126.696Z" stroke="black" stroke-width="3"/>
</svg>
